HIERARCHY
ROOT Hips
{
	OFFSET 0.00000 0.00000 0.00000
	CHANNELS 6 Xposition Yposition Zposition Zrotation Yrotation Xrotation 
	JOINT LHipJoint
	{
		OFFSET 0 0 0
		CHANNELS 3 Zrotation Yrotation Xrotation
		JOINT LeftUpLeg
		{
			OFFSET 1.64549 -1.70879 0.84566
			CHANNELS 3 Zrotation Yrotation Xrotation
			JOINT LeftLeg
			{
				OFFSET 2.24963 -6.18082 0.00000
				CHANNELS 3 Zrotation Yrotation Xrotation
				JOINT LeftFoot
				{
					OFFSET 2.71775 -7.46697 0.00000
					CHANNELS 3 Zrotation Yrotation Xrotation
					JOINT LeftToeBase
					{
						OFFSET 0.18768 -0.51564 2.24737
						CHANNELS 3 Zrotation Yrotation Xrotation
						End Site
						{
							OFFSET 0.00000 -0.00000 1.15935
						}
					}
				}
			}
		}
	}
	JOINT RHipJoint
	{
		OFFSET 0 0 0
		CHANNELS 3 Zrotation Yrotation Xrotation
		JOINT RightUpLeg
		{
			OFFSET -1.58830 -1.70879 0.84566
			CHANNELS 3 Zrotation Yrotation Xrotation
			JOINT RightLeg
			{
				OFFSET -2.25006 -6.18201 0.00000
				CHANNELS 3 Zrotation Yrotation Xrotation
				JOINT RightFoot
				{
					OFFSET -2.72829 -7.49593 0.00000
					CHANNELS 3 Zrotation Yrotation Xrotation
					JOINT RightToeBase
					{
						OFFSET -0.21541 -0.59185 2.10643
						CHANNELS 3 Zrotation Yrotation Xrotation
						End Site
						{
							OFFSET -0.00000 -0.00000 1.09838
						}
					}
				}
			}
		}
	}
	JOINT LowerBack
	{
		OFFSET 0 0 0
		CHANNELS 3 Zrotation Yrotation Xrotation
		JOINT Spine
		{
			OFFSET 0.03142 2.10496 -0.11038
			CHANNELS 3 Zrotation Yrotation Xrotation
			JOINT Spine1
			{
				OFFSET -0.01863 2.10897 -0.06956
				CHANNELS 3 Zrotation Yrotation Xrotation
				JOINT Neck
				{
					OFFSET 0 0 0
					CHANNELS 3 Zrotation Yrotation Xrotation
					JOINT Neck1
					{
						OFFSET -0.02267 1.73238 0.00451
						CHANNELS 3 Zrotation Yrotation Xrotation
						JOINT Head
						{
							OFFSET -0.05808 1.54724 -0.61749
							CHANNELS 3 Zrotation Yrotation Xrotation
							End Site
							{
								OFFSET -0.01396 1.71468 -0.21082
							}
						}
					}
				}
				JOINT LeftShoulder
				{
					OFFSET 0 0 0
					CHANNELS 3 Zrotation Yrotation Xrotation
					JOINT LeftArm
					{
						OFFSET 3.44898 0.50298 0.21920
						CHANNELS 3 Zrotation Yrotation Xrotation
						JOINT LeftForeArm
						{
							OFFSET 5.41917 -0.00000 -0.00000
							CHANNELS 3 Zrotation Yrotation Xrotation
							JOINT LeftHand
							{
								OFFSET 2.44373 -0.00000 0.00000
								CHANNELS 3 Zrotation Yrotation Xrotation
								JOINT LeftFingerBase
								{
									OFFSET 0 0 0
									CHANNELS 3 Zrotation Yrotation Xrotation
									JOINT LeftHandIndex1
									{
										OFFSET 0.72750 -0.00000 0.00000
										CHANNELS 3 Zrotation Yrotation Xrotation
										End Site
										{
											OFFSET 0.58653 -0.00000 0.00000
										}
									}
								}
								JOINT LThumb
								{
									OFFSET 0 0 0
									CHANNELS 3 Zrotation Yrotation Xrotation
									End Site
									{
										OFFSET 0.59549 -0.00000 0.59549
									}
								}
							}
						}
					}
				}
				JOINT RightShoulder
				{
					OFFSET 0 0 0
					CHANNELS 3 Zrotation Yrotation Xrotation
					JOINT RightArm
					{
						OFFSET -3.23015 0.55830 0.31051
						CHANNELS 3 Zrotation Yrotation Xrotation
						JOINT RightForeArm
						{
							OFFSET -5.58976 -0.00010 0.00014
							CHANNELS 3 Zrotation Yrotation Xrotation
							JOINT RightHand
							{
								OFFSET -2.48060 -0.00000 0.00000
								CHANNELS 3 Zrotation Yrotation Xrotation
								JOINT RightFingerBase
								{
									OFFSET 0 0 0
									CHANNELS 3 Zrotation Yrotation Xrotation
									JOINT RightHandIndex1
									{
										OFFSET -0.81601 -0.00000 0.00000
										CHANNELS 3 Zrotation Yrotation Xrotation
										End Site
										{
											OFFSET -0.65789 -0.00000 0.00000
										}
									}
								}
								JOINT RThumb
								{
									OFFSET 0 0 0
									CHANNELS 3 Zrotation Yrotation Xrotation
									End Site
									{
										OFFSET -0.66793 -0.00000 0.66793
									}
								}
							}
						}
					}
				}
			}
		}
	}
}
MOTION
Frames: 9
Frame Time: .0083333
0.658900 16.876100 6.809700 -0.364600 -3.586400 9.364400 0.000000 0.000000 0.000000 -24.374500 -17.169400 -12.331900 2.626600 10.064500 29.185800 1.882900 10.080100 -31.198100 0.179400 2.728300 7.523200 0.000000 0.000000 0.000000 19.417200 12.829800 -32.477400 -6.885400 -15.234600 48.439400 0.076000 -15.429900 -21.104600 -0.192200 2.823400 -7.787500 0.439600 1.472700 -3.862000 -1.125200 1.938400 -4.138500 -1.361600 0.942500 -2.033300 -0.700100 -0.091900 -15.389600 0.808200 -0.213000 41.733700 0.465700 -0.085300 18.211100 -0.000000 -0.000000 0.000000 -80.867900 1.459200 0.149400 30.920600 -41.669500 -12.017000 -0.000000 -0.000000 1.497800 2.041500 15.508800 0.546100 -7.125000 0.000000 -0.000000 -23.341700 44.153100 0.517500 -0.000000 -0.000000 0.000000 86.697500 -12.401400 10.235100 -14.140000 22.934500 -2.882500 0.000000 -0.000000 -10.555500 -3.578000 12.826100 -0.795300 7.125000 -0.000000 -0.000000 16.293300 -17.420700 11.129300
0.657900 16.884600 6.929800 -0.304400 -3.503300 9.512900 0.000000 0.000000 0.000000 -24.621800 -17.131700 -11.489600 2.493900 9.826800 28.417500 1.946000 10.000300 -31.529900 0.192700 2.827000 7.797500 0.000000 0.000000 0.000000 19.065700 13.105100 -32.871900 -6.337000 -14.747200 46.319800 -0.025100 -15.414700 -22.132100 -0.132300 2.344700 -6.459300 0.398800 1.450900 -3.919600 -1.086500 1.910200 -4.226500 -1.299700 0.929400 -2.095300 -0.540300 -0.046300 -15.134900 0.665200 -0.137800 41.690200 0.383400 -0.048900 18.114500 -0.000000 0.000000 0.000000 -80.757700 1.311000 0.468100 31.297200 -41.979700 -12.268200 -0.000000 -0.000000 1.634500 1.948100 15.848300 0.532200 -7.125000 0.000000 -0.000000 -23.557100 44.453800 0.337100 -0.000000 0.000000 0.000000 86.694100 -12.637800 10.149200 -14.249600 23.090400 -2.925300 0.000000 -0.000000 -11.060900 -3.823000 12.547000 -0.831700 7.125000 -0.000000 -0.000000 16.150400 -17.680900 10.926600
0.638400 16.879300 7.047600 -0.250800 -3.751000 9.740300 0.000000 0.000000 0.000000 -24.816700 -16.447900 -10.867000 2.340900 9.542800 27.508500 1.887900 10.373100 -31.432700 0.079000 1.812800 4.988600 0.000000 0.000000 0.000000 18.698700 14.149600 -33.229800 -5.787500 -14.219200 44.122700 0.051500 -16.199800 -22.473300 -0.147700 2.476600 -6.824800 0.085400 1.511000 -3.786500 -0.980500 1.995400 -4.602300 -1.025300 0.979100 -2.570600 -0.585000 -0.048100 -14.530200 0.709800 -0.148200 41.676200 0.409200 -0.054000 17.942900 -0.000000 -0.000000 0.000000 -80.631400 1.680000 0.965700 31.749200 -42.346300 -12.571500 -0.000000 -0.000000 1.528100 2.038200 16.484800 0.578600 -7.125000 0.000000 -0.000000 -23.737900 45.047000 -0.029200 -0.000000 -0.000000 0.000000 86.710000 -13.353800 9.687600 -14.466300 23.397400 -3.010800 0.000000 -0.000000 -11.069400 -3.779800 11.817100 -0.775100 7.125000 -0.000000 -0.000000 16.239000 -18.384500 10.727700
0.637100 16.888600 7.165500 -0.066700 -3.600700 9.841400 0.000000 0.000000 0.000000 -25.219600 -16.114400 -9.865900 2.166300 9.204100 26.436000 1.843400 10.568600 -31.296900 0.049900 1.442000 3.966000 0.000000 0.000000 0.000000 18.159200 14.462700 -33.518200 -5.233500 -13.642000 41.821900 0.075600 -16.542300 -22.729100 -0.182700 2.753300 -7.592700 -0.003900 1.451900 -4.159000 -0.984100 1.922200 -4.269500 -0.963200 0.947500 -2.022100 -0.565200 -0.084600 -15.059300 0.769800 -0.238700 41.572100 0.416900 -0.077800 18.024900 0.000000 0.000000 0.000000 -80.484400 0.959500 1.324600 32.279500 -42.768900 -12.930200 -0.000000 -0.000000 1.297900 1.903500 16.744700 0.548600 -7.125000 0.000000 -0.000000 -23.962900 45.268400 -0.168600 0.000000 0.000000 0.000000 86.731100 -12.580800 8.759300 -14.290900 23.149000 -2.941500 0.000000 -0.000000 -10.623900 -3.496900 11.974200 -0.726400 7.125000 -0.000000 -0.000000 16.417600 -18.241900 10.910500
0.626300 16.909100 7.283600 -0.250100 -3.643300 10.027500 0.000000 0.000000 0.000000 -25.117900 -15.930200 -8.957900 2.001700 8.869500 25.388000 1.845400 10.638500 -31.358900 0.105800 2.097800 5.776000 0.000000 0.000000 0.000000 17.977000 15.275700 -33.605600 -4.663000 -12.993900 39.345700 0.046300 -16.614300 -23.117600 -0.258900 3.273600 -9.041400 0.093400 1.485500 -4.216200 -0.885200 1.966000 -4.281000 -0.913700 0.968500 -2.001500 -0.369400 -0.093800 -15.210100 0.676600 -0.284600 41.551900 0.329300 -0.077400 18.053600 0.000000 -0.000000 0.000000 -80.359700 0.912300 1.791600 32.982800 -43.316800 -13.410200 -0.000000 -0.000000 1.146000 1.898600 16.800100 0.548900 -7.125000 0.000000 -0.000000 -23.990400 45.318400 -0.200300 0.000000 -0.000000 0.000000 86.746000 -12.401000 8.205400 -14.064300 22.826600 -2.853000 0.000000 -0.000000 -10.337200 -3.403100 12.469000 -0.735600 7.125000 -0.000000 -0.000000 16.439800 -17.769500 11.106200
0.615800 16.927200 7.402500 -0.340900 -3.610000 10.259400 0.000000 0.000000 0.000000 -25.098100 -15.753500 -8.146800 1.861300 8.571000 24.462300 1.867600 10.550900 -31.432900 0.164400 2.611900 7.200000 0.000000 0.000000 0.000000 17.635100 16.083000 -33.601700 -4.083600 -12.270800 36.696700 -0.011700 -16.610900 -23.662100 -0.332200 3.704500 -10.246700 0.038100 1.419600 -4.326000 -0.729500 1.880600 -4.490900 -0.725900 0.928700 -2.165500 -0.194300 -0.032500 -14.700200 0.497300 -0.176900 41.462800 0.233200 -0.032100 17.862100 0.000000 -0.000000 0.000000 -80.286700 1.282600 2.189600 33.645900 -43.820600 -13.867300 -0.000000 -0.000000 0.759000 1.955900 17.305100 0.582000 -7.125000 0.000000 -0.000000 -24.155100 45.786200 -0.497900 0.000000 -0.000000 0.000000 86.583500 -12.685300 8.090000 -13.913400 22.610800 -2.794700 0.000000 -0.000000 -10.141100 -3.511200 12.324700 -0.750400 7.125000 -0.000000 -0.000000 16.378700 -17.904700 11.010100
0.606500 16.951100 7.523200 -0.314000 -3.460800 10.534700 0.000000 0.000000 0.000000 -25.155100 -15.701400 -7.585400 1.740600 8.303500 23.639800 1.693000 11.467400 -31.022200 0.075100 1.767600 4.863800 0.000000 0.000000 0.000000 17.107100 16.760700 -33.552000 -3.512000 -11.481100 33.920000 -0.084400 -16.566300 -24.266600 -0.311200 3.586600 -9.916300 -0.029800 1.320300 -4.558100 -0.650000 1.752400 -4.330000 -0.600800 0.868300 -1.875700 -0.106800 0.020200 -15.520100 0.470600 -0.117400 41.552300 0.217700 0.002700 18.135800 0.000000 0.000000 0.000000 -80.164500 0.616900 2.198500 33.885000 -43.999300 -14.033100 -0.000000 -0.000000 0.703900 1.900800 17.484700 0.571300 -7.125000 0.000000 -0.000000 -24.280900 45.942800 -0.600500 0.000000 0.000000 0.000000 86.587000 -12.076400 7.216200 -13.746700 22.371400 -2.730900 0.000000 -0.000000 -9.286200 -3.232500 12.355700 -0.692400 7.125000 -0.000000 -0.000000 16.564100 -17.883500 11.154100
0.592300 16.983700 7.641700 -0.264400 -3.356100 10.828600 0.000000 0.000000 0.000000 -25.129800 -15.572400 -7.140100 1.607400 7.995400 22.700200 1.494200 12.332900 -30.440200 0.027400 1.069600 2.940200 0.000000 0.000000 0.000000 16.453800 17.684100 -33.458000 -2.990600 -10.679800 31.207500 -0.103000 -16.800500 -24.745200 -0.293800 3.485600 -9.633600 -0.202200 1.267800 -4.503100 -0.524200 1.687000 -4.641600 -0.383600 0.841500 -2.238100 -0.111100 0.060900 -15.280200 0.395000 -0.018800 41.690600 0.202500 0.031400 18.152900 -0.000000 0.000000 0.000000 -80.119200 0.882300 2.433800 34.110400 -44.166300 -14.189900 -0.000000 -0.000000 0.638900 1.814100 17.377800 0.542000 -7.125000 0.000000 -0.000000 -24.310400 45.834800 -0.532500 -0.000000 0.000000 0.000000 86.528800 -12.546600 6.690400 -13.838600 22.503400 -2.766000 0.000000 -0.000000 -8.985200 -3.126700 12.507900 -0.677800 7.125000 -0.000000 -0.000000 16.622600 -17.740700 11.252000
0.582400 17.009600 7.763000 -0.328400 -3.162100 11.124600 0.000000 0.000000 0.000000 -24.985300 -15.454900 -6.466400 1.476000 7.676700 21.736400 1.622000 11.531700 -30.623300 0.101300 2.052900 5.651800 0.000000 0.000000 0.000000 15.794200 18.685600 -33.311800 -2.528400 -9.889400 28.619200 -0.167100 -16.958500 -25.505200 -0.291700 3.473200 -9.599000 -0.150300 1.191100 -4.841700 -0.382900 1.586400 -4.613700 -0.261800 0.792200 -2.023300 -0.189200 0.050400 -15.468400 0.396500 -0.009500 41.636800 0.219300 0.023200 18.171600 0.000000 -0.000000 0.000000 -80.046000 0.671100 2.722500 34.375100 -44.360800 -14.374700 -0.000000 -0.000000 0.364700 1.824800 17.597700 0.551900 -7.125000 0.000000 -0.000000 -24.396700 46.036300 -0.663400 0.000000 -0.000000 0.000000 86.415600 -12.387700 6.366800 -13.837700 22.502300 -2.765700 0.000000 -0.000000 -8.727700 -3.222300 12.325100 -0.688500 7.125000 -0.000000 -0.000000 16.573600 -17.913200 11.149700
